<?xml version="1.0" standalone="no"?>
<!DOCTYPE svg PUBLIC "-//W3C//DTD SVG 20010904//EN"
 "http://www.w3.org/TR/2001/REC-SVG-20010904/DTD/svg10.dtd">
<svg version="1.0" xmlns="http://www.w3.org/2000/svg"
 width="500.000000pt" height="500.000000pt" viewBox="0 0 500.000000 500.000000"
 preserveAspectRatio="xMidYMid meet">
<metadata>
Created by potrace 1.16, written by Peter Selinger 2001-2019
</metadata>
<g transform="translate(0.000000,500.000000) scale(0.100000,-0.100000)"
fill="#000000" stroke="none">
<path d="M2442 3992 c-131 -394 -134 -401 -174 -402 -33 0 -184 -53 -258 -90
-77 -38 -163 -91 -214 -131 -27 -22 -28 -23 -10 -36 32 -24 154 -83 171 -83 9
0 24 6 32 14 15 12 82 47 173 91 20 10 54 21 75 26 21 4 67 15 103 23 36 8 86
15 111 16 32 0 49 5 53 15 5 14 -1 705 -7 711 -1 1 -26 -68 -55 -154z"/>
<path d="M2690 3592 c0 -5 15 -53 34 -107 l34 -97 69 -28 c89 -36 185 -92 253
-149 30 -25 58 -50 62 -56 4 -6 70 53 152 135 80 79 144 146 142 148 -3 2 -45
-17 -96 -42 -50 -25 -96 -46 -103 -46 -7 1 -41 23 -77 50 -99 76 -291 164
-400 185 -19 3 -43 9 -52 11 -10 3 -18 1 -18 -4z"/>
<path d="M1560 3434 c0 -4 20 -46 45 -95 25 -49 45 -93 45 -98 0 -6 -28 -52
-63 -103 -66 -97 -105 -172 -139 -267 -21 -59 -49 -174 -43 -179 1 -2 49 12
106 31 83 28 105 40 112 58 14 38 38 92 54 124 46 88 65 118 117 180 l58 68
-143 143 c-79 79 -145 144 -146 144 -2 0 -3 -3 -3 -6z"/>
<path d="M3322 3198 c-10 -18 -32 -59 -48 -91 l-29 -58 30 -52 c90 -160 130
-278 142 -424 l6 -73 46 -1 c81 -2 161 -1 421 0 190 2 249 5 230 13 -14 6
-135 48 -269 93 -134 46 -247 89 -251 95 -4 7 -11 31 -14 53 -8 50 -57 190
-87 249 -27 54 -125 202 -143 217 -11 9 -18 5 -34 -21z"/>
<path d="M2448 2992 c-87 -107 -213 -264 -256 -321 -49 -63 -49 -69 -6 -177
14 -36 24 -67 21 -70 -2 -3 -47 41 -98 97 -125 135 -119 130 -131 123 -6 -4
-78 -73 -160 -153 l-150 -146 6 -45 c10 -73 54 -175 116 -268 158 -240 418
-381 703 -382 413 -1 760 277 842 675 l16 78 -33 34 c-28 29 -38 33 -84 33
-50 0 -54 2 -93 48 -35 42 -48 50 -98 61 -32 8 -65 17 -73 21 -8 5 -116 108
-238 229 -123 122 -227 221 -230 221 -4 0 -28 -26 -54 -58z m534 -498 c47 -14
69 -30 128 -89 l72 -72 -10 -39 c-6 -21 -13 -65 -17 -96 -3 -32 -10 -60 -15
-63 -8 -5 -76 46 -188 143 -34 30 -65 52 -69 49 -3 -4 21 -51 54 -104 l60 -98
-13 -85 c-6 -47 -12 -86 -13 -88 -2 -4 -134 79 -238 150 -23 15 -46 28 -51 28
-5 0 -71 -64 -146 -141 -75 -78 -139 -140 -142 -137 -3 3 2 61 10 129 18 154
36 335 36 374 0 62 9 61 146 -11 71 -37 134 -71 141 -76 7 -6 17 -8 23 -6 12
4 -106 144 -218 261 l-65 68 6 57 c12 117 27 238 33 261 5 22 26 3 212 -187
196 -199 210 -212 264 -228z m-858 -108 c119 -126 128 -138 147 -203 44 -148
57 -198 55 -201 -2 -1 -16 8 -32 21 -45 37 -149 107 -158 107 -5 0 -6 -43 -2
-96 3 -52 3 -94 -1 -91 -5 2 -46 27 -93 56 l-86 52 7 67 c4 37 11 147 14 245
4 97 11 177 15 177 4 0 65 -60 134 -134z"/>
<path d="M861 2502 c-15 -5 43 -26 309 -114 241 -79 236 -76 244 -135 8 -59
56 -192 99 -272 47 -89 136 -213 148 -206 5 4 28 45 52 92 l42 85 -21 36 c-21
39 -68 128 -91 174 -21 41 -63 236 -63 291 l0 47 -97 2 c-245 4 -610 4 -622 0z"/>
<path d="M3486 2276 c-79 -26 -101 -37 -108 -56 -13 -37 -38 -92 -58 -130 -10
-19 -26 -49 -35 -66 -9 -18 -44 -64 -77 -104 l-61 -72 144 -144 c79 -79 145
-142 147 -139 2 2 -14 39 -36 82 -61 121 -61 110 11 215 35 51 78 123 95 159
53 113 104 290 84 288 -4 0 -52 -15 -106 -33z"/>
<path d="M1700 1705 c-80 -80 -141 -145 -136 -145 4 0 48 20 97 45 49 25 95
45 102 45 6 0 23 -10 37 -21 79 -64 211 -137 314 -175 69 -26 188 -56 194 -49
2 1 -12 49 -31 106 l-34 104 -44 16 c-65 23 -195 90 -226 116 -16 13 -49 41
-75 63 -26 22 -48 40 -50 40 -2 0 -68 -65 -148 -145z"/>
<path d="M3000 1731 c-92 -69 -286 -137 -417 -148 l-83 -6 -2 -276 c-3 -424
-3 -443 2 -446 3 -2 43 108 89 244 109 325 103 311 141 311 41 0 163 42 265
91 94 45 238 146 230 160 -9 14 -164 89 -183 89 -9 0 -28 -9 -42 -19z"/>
</g>
</svg>
